<svg width="33" height="20" viewBox="0 0 33 20" fill="none" xmlns="http://www.w3.org/2000/svg">
<g id="Background Image" clip-path="url(#clip0_18_465)">
<path id="Vector" d="M5.64423 8.1784C5.64403 8.17814 5.64349 8.17746 5.64287 8.17667L5.64423 8.1784ZM5.15362 8.29276C5.35636 8.29424 5.55878 8.30763 5.75977 8.33285L5.99938 8.60619L6.37678 8.24388L6.38669 8.23436L6.69088 7.94233L6.46492 7.60881C6.35146 7.333 6.27583 7.04365 6.24 6.74835C6.14715 5.80583 6.29077 4.85508 6.6586 3.97935L6.66158 3.97228L6.66433 3.96511C7.00158 3.08765 7.55706 2.30637 8.28086 1.69296C9.02416 1.10494 9.9143 0.722147 10.8596 0.584984L10.8667 0.583905C10.9081 0.577282 10.9546 0.57294 11.0161 0.567956C11.1549 0.562054 11.2926 0.540723 11.4266 0.504395C11.4962 0.527895 11.5694 0.538622 11.6427 0.53616C11.6558 0.536069 11.6781 0.535561 11.7037 0.533297H11.7047H11.7061H11.7075H11.7089H11.7103H11.7118H11.7132H11.7146H11.716H11.7174H11.7188H11.7203H11.7217H11.7231H11.7245H11.7259H11.7274H11.7288H11.7302H11.7316H11.7331H11.7345H11.7359H11.7373H11.7387H11.7402H11.7416H11.743H11.7444H11.7458H11.7473H11.7487H11.7501H11.7515H11.753H11.7544H11.7558H11.7572H11.7586H11.7601H11.7615H11.7629H11.7643H11.7658H11.7672H11.7686H11.77H11.7715H11.7729H11.7743H11.7757H11.7771H11.7786H11.78H11.7814H11.7828H11.7843H11.7857H11.7871H11.7885H11.79H11.7914H11.7928H11.7942H11.7957H11.7971H11.7985H11.7999H11.8014H11.8028H11.8042H11.8056H11.8071H11.8085H11.8099H11.8113H11.8128H11.8142H11.8156H11.817H11.8185H11.8199H11.8213H11.8227H11.8242H11.8256H11.827H11.8284H11.8298H11.8313H11.8327H11.8341H11.8355H11.837H11.8384H11.8398H11.8412H11.8427H11.8441H11.8455H11.8469H11.8484H11.8498H11.8512H11.8526H11.8541H11.8555H11.8569H11.8583H11.8598H11.8612H11.8626H11.864H11.8655H11.8669H11.8683H11.8697H11.8711H11.8726H11.874H11.8754H11.8768H11.8783H11.8797H11.8811H11.8825H11.884H11.8854H11.8868H11.8882H11.8896H11.8911H11.8925H11.8939H11.8953H11.8967H11.8982H11.8996H11.901H11.9024H11.9039H11.9053H11.9067H11.9081H11.9095H11.911H11.9124H11.9138H11.9152H11.9166H11.9181H11.9195H11.9209H11.9223H11.9237H11.9251H11.9266H11.928H11.9294H11.9308H11.9322H11.9337H11.9351H11.9365H11.9379H11.9393H11.9407H11.9422H11.9436H11.945H11.9464H11.9478H11.9492H11.9507H11.9521H11.9535H11.9549H11.9563H11.9577H11.9592H11.9606H11.962H11.9634H11.9648H11.9662H11.9676H11.969H11.9705H11.9719H11.9733H11.9747H11.9761H11.9775H11.9789H11.9803H11.9818H11.9832H11.9846H11.986H11.9874H11.9888H11.9902H11.9916H11.993H11.9944H11.9958H11.9973H11.9987H12.0001H12.0015H12.0029H12.0043H12.0057H12.0071H12.0085H12.0099H12.0113H12.0127H12.0141H12.0155H12.0169H12.0183H12.0198H12.0212H12.0226H12.024H12.0254H12.0268H12.0282H12.0296H12.031H12.0324H12.0338H12.0352H12.0366H12.038H12.0394H12.0408H12.0422H12.0436H12.045H12.0464H12.0478H12.0492H12.0506H12.052H12.0533H12.0547H12.0561H12.0575H12.0589H12.0603H12.0617H12.0631H12.0645H12.0659H12.0673H12.0687H12.0701H12.0715H12.0729H12.0743H12.0757H12.0771H12.0785H12.0799H12.0813H12.0827H12.0841H12.0855H12.0869H12.0883H12.0897H12.0911H12.0925H12.0939H12.0953H12.0967H12.0981H12.0995H12.1009H12.1023H12.1037H12.1051H12.1065H12.1079H12.1093H12.1107H12.1121H12.1136H12.115H12.1164H12.1178H12.1192H12.1206H12.122H12.1234H12.1248H12.1262H12.1276H12.129H12.1304H12.1319H12.1333H12.1347H12.1361H12.1375H12.1389H12.1403H12.1417H12.1431H12.1446H12.146H12.1474H12.1488H12.1502H12.1516H12.153H12.1544H12.1559H12.1573H12.1587H12.1601H12.1615H12.1629H12.1643H12.1658H12.1672H12.1686H12.17H12.1714H12.1728H12.1743H12.1757H12.1771H12.1785H12.1799H12.1813H12.1828H12.1842H12.1856H12.187H12.1884H12.1898H12.1913H12.1927H12.1941H12.1955H12.1969H12.1984H12.1998H12.2012H12.2026H12.204H12.2055H12.2069H12.2083H12.2097H12.2111H12.2126H12.214H12.2154H12.2168H12.2182H12.2197H12.2211H12.2225H12.2239H12.2253H12.2268H12.2282H12.2296H12.231H12.2325H12.2339H12.2353H12.2367H12.2381H12.2396H12.241H12.2424H12.2438H12.2453H12.2467H12.2481H12.2495H12.251H12.2524H12.2538H12.2552H12.2566H12.2581H12.2595H12.2609H12.2623H12.2638H12.2652H12.2666H12.268H12.2695H12.2709H12.2723H12.2737H12.2752H12.2766H12.278H12.2794H12.2809H12.2823H12.2837H12.2851H12.2866H12.288H12.2894H12.2908H12.2923H12.2937H12.2951H12.2965H12.298H12.2994H12.3008H12.3022H12.3036H12.3051H12.3065H12.3079H12.3093H12.3108H12.3122H12.3136H12.315H12.3165H12.3179H12.3193H12.3207H12.3222H12.3236H12.325H12.3264H12.3279H12.3293H12.3307H12.3321H12.3336H12.335H12.3364H12.3378H12.3393H12.3407H12.3421H12.3435H12.345H12.3464H12.3478H12.3492H12.3506H12.3521H12.3535H12.3549H12.3563H12.3578H12.3592H12.3606H12.362H12.3635H12.3649H12.3663H12.3677H12.3691H12.3706H12.372H12.3734H12.3748H12.3763H12.3777H12.3791H12.3805H12.3819H12.3834H12.3848H12.3862H12.3876H12.389H12.3905H12.3919H12.3933H12.3947H12.3961H12.3976H12.399H12.4004H12.4018H12.4032H12.4047C12.9956 0.574384 13.5747 0.71985 14.1128 0.962587L14.1228 0.966939C14.6813 1.20444 15.2043 1.5153 15.6774 1.89089C16.1419 2.26546 16.5399 2.71267 16.8557 3.21428L16.8574 3.21695C17.0447 3.51044 17.1689 3.83805 17.2226 4.17966L17.4069 5.35118L18.117 4.40134C18.3764 4.05433 18.6932 3.75198 19.0544 3.50696C19.4083 3.27345 19.8037 3.10656 20.2204 3.01514L20.2237 3.01438C20.4829 2.95563 20.7481 2.92545 21.0142 2.92443C21.5982 2.9269 22.1707 3.08134 22.6735 3.37147L22.6835 3.37711C23.4292 3.78478 23.9912 4.45039 24.2619 5.24177L24.2643 5.24846C24.4034 5.63715 24.4716 6.04678 24.4656 6.45849C24.4542 6.88144 24.3724 7.29984 24.2234 7.69708L23.8601 8.66531L24.8446 8.34871C25.1221 8.25947 25.4054 8.18863 25.6925 8.13669C26.0239 8.07973 26.3595 8.05043 26.6959 8.04911C27.3071 8.04614 27.9135 8.15878 28.481 8.38074C29.0707 8.62024 29.6106 8.96334 30.0745 9.3929L30.081 9.39883C30.5102 9.78251 30.8744 10.2306 31.1603 10.7261C31.4862 11.3204 31.6793 11.9759 31.727 12.6489C31.7745 13.3195 31.6765 13.9925 31.4393 14.6234C31.1475 15.2909 30.6911 15.8766 30.1115 16.3276L29.9789 16.4222C29.0604 17.077 28.0163 17.5425 26.9094 17.7905L26.9004 17.7926C25.6285 18.1024 24.334 18.3147 23.0286 18.4275L23.0219 18.4281C21.3726 18.593 19.6515 18.6824 17.9065 18.6945C17.8662 18.6945 17.8403 18.6944 17.8163 18.693L17.8019 18.6921H17.7874H15.7189H15.7154C15.6921 18.6921 15.649 18.6921 15.5997 18.6964L15.5779 18.6984L15.5652 18.6995C15.5641 18.6996 15.5632 18.6997 15.5625 18.6997C14.3541 18.6886 13.3545 18.6578 12.4155 18.6031L11.9609 18.5769L11.9466 18.576H11.9388C11.8548 18.571 11.7707 18.5661 11.6864 18.5612C11.3711 18.5428 11.0544 18.5242 10.7415 18.5017C10.03 18.4504 9.38921 18.3933 8.78135 18.3272L8.77708 18.3268C7.90585 18.2396 7.03964 18.1093 6.18173 17.9366C5.10501 17.7125 4.07912 17.2974 3.15431 16.7117L3.1432 16.7049C2.31196 16.2084 1.63128 15.5035 1.17033 14.6637C0.725514 13.8125 0.618404 12.849 0.883265 11.6789L0.883815 11.6764C0.990249 11.1948 1.17959 10.7343 1.44389 10.3149C1.68605 9.93468 1.9898 9.59554 2.3434 9.31093C3.02294 8.77088 3.84288 8.42728 4.71132 8.31967C4.85802 8.30159 5.00575 8.29261 5.15362 8.29276Z" stroke="black"/>
</g>
<defs>
<clipPath id="clip0_18_465">
<rect width="32" height="20" fill="white" transform="translate(0.240234)"/>
</clipPath>
</defs>
</svg>
