<svg width="25" height="24" viewBox="0 0 25 24" fill="none" xmlns="http://www.w3.org/2000/svg">
<g id="Icon">
<path id="Vector" d="M2.86035 10.5001C2.86035 11.0501 3.00035 11.6001 3.26035 12.0901C3.52035 12.5801 3.90035 13.0001 4.36035 13.3001V19.4901C4.36035 19.7901 4.48035 20.0701 4.69035 20.2901C4.90035 20.5001 5.19035 20.6201 5.49035 20.6201H18.9904C19.2904 20.6201 19.5704 20.5001 19.7904 20.2901C20.0104 20.0801 20.1203 19.7901 20.1203 19.4901V13.3001C20.5803 12.9901 20.9604 12.5701 21.2204 12.0901C21.4804 11.6001 21.6203 11.0501 21.6203 10.5001V9.00012C21.6203 9.00012 21.6204 8.93012 21.6104 8.90012L20.2604 4.19012C20.1904 3.96012 20.0504 3.75012 19.8604 3.60012C19.6704 3.45012 19.4304 3.37012 19.1804 3.37012H5.30035C5.06035 3.37012 4.82035 3.45012 4.62035 3.60012C4.42523 3.74693 4.2845 3.9545 4.22035 4.19012L2.87035 8.90012C2.87035 8.90012 2.86035 8.97012 2.86035 9.00012V10.5001ZM4.94035 4.40012C4.96173 4.32151 5.00719 4.25157 5.07035 4.20012C5.13233 4.14899 5.21001 4.12074 5.29035 4.12012H19.1704C19.2535 4.12223 19.3339 4.15019 19.4004 4.20012C19.4604 4.25012 19.5104 4.32012 19.5304 4.40012L20.7404 8.63012H3.74035L4.95035 4.40012H4.94035ZM9.61035 9.38012H14.8604V10.5001C14.8604 11.2001 14.5804 11.8601 14.0904 12.3601C13.6004 12.8501 12.9304 13.1301 12.2304 13.1301C11.5304 13.1301 10.8704 12.8501 10.3704 12.3601C9.88035 11.8701 9.60035 11.2001 9.60035 10.5001V9.38012H9.61035ZM3.61035 10.5001V9.38012H8.86035V10.5001C8.86035 11.2001 8.58035 11.8601 8.09035 12.3601C7.60035 12.8501 6.93035 13.1301 6.23035 13.1301C5.53035 13.1301 4.87035 12.8501 4.37035 12.3601C3.88035 11.8701 3.60035 11.2001 3.60035 10.5001H3.61035ZM19.3604 19.5001C19.3604 19.6001 19.3204 19.6901 19.2504 19.7701C19.1804 19.8401 19.0804 19.8801 18.9804 19.8801H5.49035C5.39035 19.8801 5.30035 19.8401 5.22035 19.7701C5.1498 19.698 5.11031 19.601 5.11035 19.5001V13.6801C5.88035 13.9501 6.72035 13.9401 7.48035 13.6301C8.24035 13.3301 8.86035 12.7601 9.24035 12.0401C9.52379 12.5915 9.95258 13.0549 10.4804 13.3801C11.0116 13.7002 11.6201 13.8694 12.2404 13.8694C12.8606 13.8694 13.4691 13.7002 14.0004 13.3801C14.5304 13.0601 14.9604 12.6001 15.2404 12.0401C15.6104 12.7701 16.2404 13.3301 17.0004 13.6301C17.7604 13.9301 18.6003 13.9501 19.3703 13.6801V19.5001H19.3604ZM18.2404 13.1201C17.5404 13.1201 16.8804 12.8401 16.3804 12.3501C15.8904 11.8601 15.6104 11.1901 15.6104 10.4901V9.37012H20.8604V10.4901C20.8604 11.1901 20.5804 11.8501 20.0904 12.3501C19.6004 12.8401 18.9304 13.1201 18.2304 13.1201H18.2404Z" fill="#080707"/>
</g>
</svg>
