<svg width="21" height="20" viewBox="0 0 21 20" fill="none" xmlns="http://www.w3.org/2000/svg">
<g id="Icon" clip-path="url(#clip0_18_2185)">
<path id="Vector" fill-rule="evenodd" clip-rule="evenodd" d="M10.92 0C9.52757 0 8.19221 0.460936 7.20764 1.28141C6.22308 2.10188 5.66995 3.21468 5.66995 4.375V5H1.12695L1.88095 16.3733C1.99595 18.405 4.03095 20 6.41995 20H15.42C17.82 20 19.795 18.3958 19.91 16.375L20.716 5H16.17V4.375C16.17 1.95833 13.82 0 10.92 0ZM14.67 6.25V9.375H16.17V6.25H19.124L18.413 16.305V16.3133C18.336 17.6875 16.997 18.75 15.42 18.75H6.41995C4.82995 18.75 3.45495 17.6775 3.37995 16.3133L2.71095 6.25H5.66995V9.375H7.16995V6.25H14.67ZM14.67 5V4.375C14.67 3.96462 14.573 3.55826 14.3845 3.17911C14.196 2.79997 13.9198 2.45547 13.5716 2.16529C13.2234 1.87511 12.81 1.64492 12.355 1.48788C11.9 1.33083 11.4124 1.25 10.92 1.25C10.4275 1.25 9.93986 1.33083 9.48489 1.48788C9.02992 1.64492 8.61652 1.87511 8.2683 2.16529C7.92008 2.45547 7.64386 2.79997 7.45541 3.17911C7.26695 3.55826 7.16995 3.96462 7.16995 4.375V5H14.67Z" fill="black"/>
</g>
<defs>
<clipPath id="clip0_18_2185">
<rect width="20" height="20" fill="white" transform="translate(0.919922)"/>
</clipPath>
</defs>
</svg>
