<svg width="25" height="24" viewBox="0 0 25 24" fill="none" xmlns="http://www.w3.org/2000/svg">
<g id="Icon">
<path id="Vector" d="M23.0904 11.1099L21.7804 7.82988C21.6978 7.62191 21.5544 7.44376 21.3687 7.31883C21.1831 7.1939 20.9641 7.12803 20.7404 7.12988H17.1204V6.00988C17.1204 5.90988 17.0804 5.81988 17.0104 5.73988C16.9382 5.66933 16.8413 5.62984 16.7404 5.62988H2.49035C2.19035 5.62988 1.91035 5.74988 1.69035 5.95988C1.48035 6.16988 1.36035 6.45988 1.36035 6.75988V17.2599C1.36035 17.5599 1.48035 17.8399 1.69035 18.0599C1.90035 18.2699 2.19035 18.3899 2.49035 18.3899H4.39035C4.48035 19.0099 4.79035 19.5899 5.27035 19.9999C5.75035 20.4099 6.36035 20.6399 6.99035 20.6399C7.62035 20.6399 8.23035 20.4099 8.71035 19.9999C9.19035 19.5899 9.50035 19.0199 9.59035 18.3899H14.8904C14.9804 19.0099 15.2904 19.5899 15.7704 19.9999C16.2504 20.4099 16.8604 20.6399 17.4904 20.6399C18.1203 20.6399 18.7304 20.4099 19.2104 19.9999C19.6903 19.5899 20.0004 19.0199 20.0904 18.3899H21.9904C22.2903 18.3899 22.5704 18.2699 22.7903 18.0599C23.0103 17.8499 23.1203 17.5599 23.1203 17.2599V11.2599C23.1203 11.2599 23.1204 11.1699 23.0904 11.1199V11.1099ZM17.1204 7.86988H20.7404C20.8151 7.86837 20.8885 7.88954 20.951 7.9306C21.0135 7.97165 21.0621 8.03067 21.0904 8.09988L22.2003 10.8599H17.1304V7.85988L17.1204 7.86988ZM2.12035 6.74988C2.12035 6.64988 2.16035 6.55988 2.23035 6.47988C2.30035 6.39988 2.40035 6.36988 2.50035 6.36988H16.3804V13.1199H2.12035V6.73988V6.74988ZM7.00035 19.8699C6.63035 19.8699 6.27035 19.7599 5.96035 19.5499C5.65306 19.3439 5.41329 19.0519 5.27101 18.7104C5.12872 18.369 5.09023 17.9931 5.16035 17.6299C5.23035 17.2699 5.41035 16.9299 5.67035 16.6699C5.86677 16.475 6.10388 16.326 6.36467 16.2336C6.62547 16.1412 6.90348 16.1077 7.17877 16.1354C7.45407 16.1631 7.71981 16.2514 7.95695 16.394C8.19408 16.5365 8.39673 16.7298 8.55035 16.9599C8.76035 17.2699 8.87035 17.6299 8.87035 17.9999C8.87035 18.2499 8.82035 18.4899 8.73035 18.7199C8.64035 18.9499 8.50035 19.1499 8.32035 19.3299C8.15035 19.4999 7.94035 19.6399 7.71035 19.7399C7.48035 19.8299 7.24035 19.8799 6.99035 19.8799L7.00035 19.8699ZM14.9004 17.6199H9.60035C9.51035 16.9999 9.20035 16.4199 8.72035 16.0099C8.24035 15.5999 7.63035 15.3699 7.00035 15.3699C6.37035 15.3699 5.76035 15.5999 5.28035 16.0099C4.80035 16.4199 4.49035 16.9899 4.40035 17.6199H2.50035C2.40035 17.6199 2.31035 17.5799 2.23035 17.5099C2.1598 17.4377 2.12031 17.3408 2.12035 17.2399V13.8599H16.3704V15.6099C15.9804 15.7999 15.6404 16.0799 15.3804 16.4199C15.1204 16.7699 14.9604 17.1699 14.8904 17.5999L14.9004 17.6199ZM17.5004 19.8699C17.1304 19.8699 16.7704 19.7599 16.4604 19.5499C16.1504 19.3399 15.9104 19.0499 15.7704 18.7099C15.6304 18.3699 15.5904 17.9899 15.6604 17.6299C15.7304 17.2699 15.9104 16.9299 16.1704 16.6699C16.3668 16.475 16.6039 16.326 16.8647 16.2336C17.1255 16.1412 17.4035 16.1077 17.6788 16.1354C17.9541 16.1631 18.2198 16.2514 18.4569 16.394C18.6941 16.5365 18.8967 16.7298 19.0504 16.9599C19.2504 17.2699 19.3703 17.6299 19.3703 17.9999C19.3703 18.4999 19.1704 18.9699 18.8204 19.3299C18.4704 19.6799 17.9904 19.8799 17.4904 19.8799L17.5004 19.8699ZM22.3804 17.2499C22.3804 17.3499 22.3404 17.4399 22.2704 17.5199C22.2004 17.5899 22.1004 17.6299 22.0004 17.6299H20.1004C20.0004 16.9399 19.6304 16.3199 19.0704 15.8999C18.7943 15.6921 18.4799 15.5409 18.1453 15.4551C17.8106 15.3693 17.4623 15.3505 17.1204 15.3999V11.6199H22.3703V17.2399L22.3804 17.2499Z" fill="#080707"/>
</g>
</svg>
