<svg width="16" height="16" viewBox="0 0 16 16" fill="none" xmlns="http://www.w3.org/2000/svg">
<g id="Icon" clip-path="url(#clip0_18_1484)">
<path id="Vector" d="M14 15.9999C14.4723 15.9995 14.9292 15.8319 15.2897 15.5268C15.6503 15.2218 15.8913 14.799 15.97 14.3333H16V13.6666H15.97C15.8888 13.2031 15.6467 12.783 15.2864 12.4803C14.9261 12.1777 14.4706 12.0117 14 12.0117C13.5294 12.0117 13.0739 12.1777 12.7136 12.4803C12.3533 12.783 12.1112 13.2031 12.03 13.6666L0 13.6666V14.3333L12.03 14.3333C12.1087 14.799 12.3497 15.2218 12.7103 15.5268C13.0708 15.8319 13.5277 15.9995 14 15.9999ZM12.6667 13.9999C12.6667 13.7362 12.7449 13.4784 12.8914 13.2592C13.0379 13.0399 13.2461 12.869 13.4898 12.7681C13.7334 12.6672 14.0015 12.6408 14.2601 12.6922C14.5188 12.7437 14.7563 12.8707 14.9428 13.0571C15.1293 13.2436 15.2563 13.4812 15.3077 13.7398C15.3592 13.9985 15.3328 14.2666 15.2318 14.5102C15.1309 14.7538 14.96 14.9621 14.7408 15.1086C14.5215 15.2551 14.2637 15.3333 14 15.3333C13.6464 15.3333 13.3072 15.1928 13.0572 14.9428C12.8071 14.6927 12.6667 14.3536 12.6667 13.9999ZM7.63667 8.33328H16V7.66661L7.63667 7.66661C7.55546 7.20308 7.31341 6.78303 6.95309 6.48034C6.59277 6.17766 6.13725 6.01172 5.66667 6.01172C5.19608 6.01172 4.74056 6.17766 4.38024 6.48034C4.01992 6.78303 3.77787 7.20308 3.69667 7.66661H0V8.33328L3.69667 8.33328C3.77787 8.79681 4.01992 9.21686 4.38024 9.51954C4.74056 9.82223 5.19608 9.98817 5.66667 9.98817C6.13725 9.98817 6.59277 9.82223 6.95309 9.51954C7.31341 9.21686 7.55546 8.79681 7.63667 8.33328ZM4.33333 7.99994C4.33333 7.73624 4.41153 7.47845 4.55804 7.25918C4.70455 7.03992 4.91279 6.86902 5.15642 6.7681C5.40006 6.66719 5.66815 6.64078 5.92679 6.69223C6.18543 6.74368 6.42301 6.87066 6.60948 7.05713C6.79595 7.2436 6.92293 7.48118 6.97438 7.73982C7.02583 7.99846 6.99942 8.26655 6.89851 8.51019C6.79759 8.75382 6.62669 8.96206 6.40743 9.10857C6.18816 9.25508 5.93038 9.33328 5.66667 9.33328C5.31304 9.33328 4.97391 9.1928 4.72386 8.94275C4.47381 8.6927 4.33333 8.35357 4.33333 7.99994ZM15.97 2.33328H16V1.66661H15.97C15.8888 1.20308 15.6467 0.783032 15.2864 0.480344C14.9261 0.177656 14.4706 0.0117187 14 0.0117188C13.5294 0.0117187 13.0739 0.177656 12.7136 0.480344C12.3533 0.783032 12.1112 1.20308 12.03 1.66661L0 1.66661V2.33328L12.03 2.33328C12.1112 2.79681 12.3533 3.21686 12.7136 3.51954C13.0739 3.82223 13.5294 3.98817 14 3.98817C14.4706 3.98817 14.9261 3.82223 15.2864 3.51954C15.6467 3.21686 15.8888 2.79681 15.97 2.33328ZM12.6667 1.99994C12.6667 1.73624 12.7449 1.47845 12.8914 1.25918C13.0379 1.03992 13.2461 0.869021 13.4898 0.768104C13.7334 0.667187 14.0015 0.640783 14.2601 0.69223C14.5188 0.743677 14.7563 0.870664 14.9428 1.05713C15.1293 1.2436 15.2563 1.48118 15.3077 1.73982C15.3592 1.99846 15.3328 2.26655 15.2318 2.51019C15.1309 2.75382 14.96 2.96206 14.7408 3.10857C14.5215 3.25508 14.2637 3.33328 14 3.33328C13.6464 3.33328 13.3072 3.1928 13.0572 2.94275C12.8071 2.6927 12.6667 2.35357 12.6667 1.99994Z" fill="#080707"/>
</g>
<defs>
<clipPath id="clip0_18_1484">
<rect width="16" height="16" fill="white" transform="matrix(0 1 -1 0 16 0)"/>
</clipPath>
</defs>
</svg>
