<svg width="21" height="20" viewBox="0 0 21 20" fill="none" xmlns="http://www.w3.org/2000/svg">
<g id="Icon" clip-path="url(#clip0_18_2182)">
<path id="Vector" fill-rule="evenodd" clip-rule="evenodd" d="M6.11489 4.66762C5.98762 2.10476 7.93671 0 10.2013 0C12.4731 0 14.3722 2.06667 14.2885 4.65524V4.67524L14.2858 4.69429C14.2658 4.93714 14.1603 5.6181 14.0694 6.19619L13.9422 6.98952L13.9003 7.2419L13.8858 7.33048C13.5785 9.37238 12.3603 11.4286 10.2003 11.4286C8.0458 11.4286 6.82489 9.37714 6.51671 7.37333L6.50216 7.28286L6.46125 7.03048C6.42671 6.81905 6.38034 6.53238 6.33398 6.23048C6.24125 5.64857 6.13671 4.95429 6.1158 4.68952V4.67905L6.11398 4.66667L6.11489 4.66762ZM7.86398 7.14381C8.13035 8.88762 9.06125 10 10.2022 10C11.3385 10 12.2713 8.89333 12.5385 7.10381L12.5567 6.99905L12.5976 6.74857L12.724 5.96191C12.8176 5.37238 12.9067 4.78095 12.9267 4.58571C12.9749 2.76857 11.6531 1.42857 10.2003 1.42857C8.74035 1.42857 7.39398 2.81905 7.4758 4.58286C7.49307 4.78571 7.58398 5.39524 7.67853 5.99905C7.7258 6.29714 7.77125 6.58095 7.8058 6.78952L7.8458 7.04095L7.86307 7.14286L7.86398 7.14381ZM16.6158 13.3219L10.2003 12.1314L3.78489 13.3219L3.77125 13.3248C2.60489 13.5952 1.35489 14.3695 1.08944 15.86L1.08671 15.8781L0.557617 20H19.854L19.2767 15.8867C19.0613 14.3705 17.7876 13.5933 16.6294 13.3248L16.6158 13.3219ZM2.43398 16.1057C2.56125 15.439 3.15216 14.9343 4.05216 14.7229L10.2013 13.5829L16.3485 14.7229C17.2631 14.9381 17.8349 15.4457 17.9276 16.0962L18.2749 18.5714H2.11671L2.43398 16.1057Z" fill="black"/>
</g>
<defs>
<clipPath id="clip0_18_2182">
<rect width="20" height="20" fill="white" transform="translate(0.200195)"/>
</clipPath>
</defs>
</svg>
