<svg width="25" height="24" viewBox="0 0 25 24" fill="none" xmlns="http://www.w3.org/2000/svg">
<g id="Icon">
<path id="Vector" d="M15.8801 12.8601C15.8801 12.8601 15.8001 12.7601 15.7901 12.7101C15.7719 12.6519 15.7684 12.59 15.7801 12.5301C15.7901 12.4701 15.8201 12.4101 15.8601 12.3701C15.8968 12.3223 15.945 12.2845 16.0001 12.2601L20.2001 10.4401C20.4101 10.3501 20.5801 10.2001 20.7001 10.0001C20.8207 9.80935 20.8796 9.58608 20.8689 9.36065C20.8582 9.13522 20.7783 8.91857 20.6401 8.74012C20.5001 8.56012 20.3201 8.42012 20.1001 8.35012L5.09012 3.43012C4.8927 3.36766 4.68191 3.36075 4.48082 3.41014C4.27974 3.45953 4.09613 3.56331 3.95012 3.71012C3.80331 3.85613 3.69953 4.03974 3.65014 4.24082C3.60075 4.44191 3.60766 4.6527 3.67012 4.85012L8.57012 19.8601C8.63687 20.0788 8.76992 20.2713 8.95086 20.411C9.1318 20.5507 9.35169 20.6308 9.58012 20.6401H9.64012C9.86012 20.6401 10.0701 20.5801 10.2501 20.4601C10.4301 20.3401 10.5801 20.1701 10.6601 19.9701L12.4801 15.7701C12.5001 15.7101 12.5401 15.6601 12.5901 15.6301C12.6401 15.5901 12.6901 15.5701 12.7501 15.5501C12.8101 15.5401 12.8701 15.5501 12.9301 15.5601C12.9901 15.5801 13.0401 15.6101 13.0801 15.6501L17.7401 20.3101C17.8401 20.4101 17.9701 20.5001 18.1101 20.5501C18.2457 20.6096 18.3921 20.6403 18.5401 20.6403C18.6881 20.6403 18.8346 20.6096 18.9701 20.5501C19.1101 20.4901 19.2301 20.4101 19.3401 20.3101L20.5301 19.1201C20.6301 19.0201 20.7201 18.8901 20.7701 18.7501C20.8296 18.6146 20.8603 18.4681 20.8603 18.3201C20.8603 18.1721 20.8296 18.0257 20.7701 17.8901C20.7101 17.7501 20.6301 17.6301 20.5301 17.5201L15.8701 12.8701L15.8801 12.8601ZM20.0101 18.5801L18.8201 19.7701C18.7501 19.8401 18.6501 19.8801 18.5601 19.8801C18.4701 19.8801 18.3701 19.8401 18.3001 19.7701L13.6401 15.1101C13.4301 14.9001 13.1401 14.7801 12.8401 14.7801C12.7701 14.7801 12.7001 14.7801 12.6301 14.8001C12.4501 14.8301 12.2801 14.9101 12.1401 15.0301C12.0001 15.1401 11.8801 15.2901 11.8101 15.4601L9.99012 19.6601C9.96012 19.7301 9.91012 19.7801 9.84012 19.8201C9.78012 19.8601 9.70012 19.8801 9.63012 19.8701C9.56012 19.8701 9.48012 19.8401 9.42012 19.8001C9.36067 19.7536 9.3156 19.6912 9.29012 19.6201L4.38012 4.61012C4.36007 4.54496 4.36007 4.47528 4.38012 4.41012C4.40012 4.34012 4.43012 4.28012 4.48012 4.24012C4.53012 4.19012 4.59012 4.16012 4.65012 4.14012C4.71594 4.12511 4.78429 4.12511 4.85012 4.14012L19.8601 9.04012C19.9301 9.06012 19.9901 9.11012 20.0401 9.17012C20.0901 9.23012 20.1101 9.30012 20.1201 9.38012C20.1216 9.45486 20.1005 9.52831 20.0594 9.59079C20.0183 9.65327 19.9593 9.70184 19.8901 9.73012L15.6901 11.5601C15.5201 11.6301 15.3701 11.7501 15.2601 11.8901C15.1501 12.0301 15.0701 12.2001 15.0301 12.3801C15.0001 12.5601 15.0101 12.7501 15.0601 12.9201C15.1101 13.1001 15.2101 13.2501 15.3401 13.3801L20.0001 18.0401C20.0701 18.1101 20.1101 18.2101 20.1101 18.3001C20.1101 18.3901 20.0701 18.4901 20.0001 18.5601L20.0101 18.5801ZM8.87012 2.25012V1.50012C8.87012 1.40012 8.91012 1.31012 8.98012 1.23012C9.05012 1.16012 9.15012 1.12012 9.25012 1.12012C9.35012 1.12012 9.44012 1.16012 9.52012 1.23012C9.59012 1.30012 9.63012 1.40012 9.63012 1.50012V2.25012C9.63012 2.35012 9.59012 2.44012 9.52012 2.52012C9.45012 2.59012 9.35012 2.63012 9.25012 2.63012C9.15012 2.63012 9.06012 2.59012 8.98012 2.52012C8.90956 2.44796 8.87008 2.35104 8.87012 2.25012ZM1.37012 9.00012C1.37012 8.90012 1.41012 8.81012 1.48012 8.73012C1.55012 8.66012 1.65012 8.62012 1.75012 8.62012H2.50012C2.60012 8.62012 2.69012 8.66012 2.77012 8.73012C2.84012 8.80012 2.88012 8.90012 2.88012 9.00012C2.88012 9.10012 2.84012 9.19012 2.77012 9.27012C2.70012 9.34012 2.60012 9.38012 2.50012 9.38012H1.75012C1.65012 9.38012 1.56012 9.34012 1.48012 9.27012C1.40956 9.19796 1.37008 9.10104 1.37012 9.00012ZM11.9001 2.83012L12.6501 1.33012C12.6901 1.24012 12.7701 1.17012 12.8701 1.14012C12.9601 1.11012 13.0701 1.12012 13.1601 1.16012C13.2501 1.20012 13.3201 1.28012 13.3501 1.38012C13.3801 1.47012 13.3701 1.58012 13.3301 1.67012L12.5801 3.17012C12.5401 3.26012 12.4601 3.33012 12.3601 3.36012C12.2701 3.39012 12.1601 3.38012 12.0701 3.34012C12.0245 3.31926 11.9839 3.28881 11.9511 3.25084C11.9183 3.21288 11.8941 3.16829 11.8801 3.12012C11.8501 3.03012 11.8601 2.92012 11.9001 2.83012ZM3.58012 11.8301C3.58012 11.8301 3.62012 11.9201 3.62012 11.9701C3.62012 12.0201 3.62012 12.0701 3.60012 12.1201C3.58012 12.1701 3.56012 12.2101 3.53012 12.2501C3.50012 12.2901 3.46012 12.3201 3.41012 12.3401L1.91012 13.0901C1.84643 13.1217 1.77511 13.1348 1.70436 13.1277C1.6336 13.1206 1.56628 13.0937 1.51012 13.0501C1.44338 12.9976 1.39733 12.9233 1.38012 12.8401C1.36024 12.7559 1.37086 12.6673 1.41012 12.5901C1.45012 12.5101 1.51012 12.4501 1.58012 12.4101L3.08012 11.6601C3.08012 11.6601 3.17012 11.6201 3.22012 11.6201C3.27012 11.6201 3.32012 11.6201 3.37012 11.6401C3.42012 11.6601 3.46012 11.6801 3.50012 11.7101C3.54012 11.7401 3.57012 11.7801 3.59012 11.8301H3.58012Z" fill="#080707"/>
</g>
</svg>
