<svg width="16" height="16" viewBox="0 0 16 16" fill="none" xmlns="http://www.w3.org/2000/svg">
<g id="Icon" clip-path="url(#clip0_18_2193)">
<path id="Vector" fill-rule="evenodd" clip-rule="evenodd" d="M6.85703 12.5713C5.34151 12.5713 3.88806 11.9693 2.81642 10.8976C1.74479 9.82601 1.14275 8.37256 1.14275 6.85703C1.14275 5.34151 1.74479 3.88806 2.81642 2.81642C3.88806 1.74479 5.34151 1.14275 6.85703 1.14275C8.37256 1.14275 9.82601 1.74479 10.8976 2.81642C11.9693 3.88806 12.5713 5.34151 12.5713 6.85703C12.5713 8.37256 11.9693 9.82601 10.8976 10.8976C9.82601 11.9693 8.37256 12.5713 6.85703 12.5713ZM12.0928 11.2852C13.2353 9.93441 13.8114 8.19431 13.7009 6.42862C13.5903 4.66293 12.8016 3.0083 11.4996 1.81054C10.1976 0.612792 8.48299 -0.0353831 6.71422 0.00149129C4.94546 0.0383657 3.25939 0.757435 2.00841 2.00841C0.757435 3.25939 0.0383657 4.94546 0.00149129 6.71422C-0.0353831 8.48299 0.612792 10.1976 1.81054 11.4996C3.0083 12.8016 4.66293 13.5903 6.42862 13.7009C8.19431 13.8114 9.93441 13.2353 11.2852 12.0928L15.0247 15.8323C15.077 15.8884 15.1401 15.9334 15.2101 15.9647C15.2802 15.9959 15.3559 16.0127 15.4326 16.0141C15.5094 16.0154 15.5856 16.0013 15.6567 15.9726C15.7279 15.9438 15.7925 15.901 15.8468 15.8468C15.901 15.7925 15.9438 15.7279 15.9726 15.6567C16.0013 15.5856 16.0154 15.5094 16.0141 15.4326C16.0127 15.3559 15.9959 15.2802 15.9647 15.2101C15.9334 15.1401 15.8884 15.077 15.8323 15.0247L12.0928 11.2852Z" fill="black"/>
</g>
<defs>
<clipPath id="clip0_18_2193">
<rect width="16" height="16" fill="white"/>
</clipPath>
</defs>
</svg>
